# xmcd CD database file
#
# Track frame offsets:
#	150
#	5310
#	23772
#	43352
#	65650
#	83555
#	101606
#	118298
#	136150
#	157481
#	171027
#	188280
#
# Disc length: 2734 seconds
#
# Revision: 0
# Processed by: cddbd v1.5.1PL0 Copyright (c) Steve Scherf et al.
# Submitted via: CDex 1.51
#
DISCID=9a0aac0c
DTITLE=ADRIAN GALE - Crunch
DYEAR=2004
DGENRE=Hard Rock
TTITLE0=Breaking Stride
TTITLE1=Crunch
TTITLE2=Faith
TTITLE3=Without A Moment's Notice
TTITLE4=Tougher Than It Looks
TTITLE5=When In Rome
TTITLE6=Long Gone
TTITLE7=The Thin Line
TTITLE8=Question
TTITLE9=Freedom
TTITLE10=This Time
TTITLE11=Last Call
EXTD=YEAR: 2004
EXTT0=
EXTT1=
EXTT2=
EXTT3=
EXTT4=
EXTT5=
EXTT6=
EXTT7=
EXTT8=
EXTT9=
EXTT10=
EXTT11=
PLAYORDER=
